<svg xmlns="http://www.w3.org/2000/svg" viewBox="0 0 48 48">
  <path fill="#0078D4" d="M24,4C12.954,4,4,12.954,4,24s8.954,20,20,20s20-8.954,20-20S35.046,4,24,4z"/>
  <path fill="#FFF" d="M24,8c8.837,0,16,7.163,16,16s-7.163,16-16,16S8,32.837,8,24S15.163,8,24,8z"/>
  <path fill="#0078D4" d="M24,12c-6.627,0-12,5.373-12,12s5.373,12,12,12s12-5.373,12-12S30.627,12,24,12z"/>
  <path fill="#FFF" d="M24,16c4.418,0,8,3.582,8,8s-3.582,8-8,8s-8-3.582-8-8S19.582,16,24,16z"/>
  <path fill="#0078D4" d="M24,20c2.209,0,4,1.791,4,4s-1.791,4-4,4s-4-1.791-4-4S21.791,20,24,20z"/>
</svg> 